<?xml version="1.0" encoding="UTF-8"?>
<!-- Generator: Adobe Illustrator 15.0.2, SVG Export Plug-In . SVG Version: 6.00 Build 0)  -->
<!DOCTYPE svg PUBLIC "-//W3C//DTD SVG 1.1//EN" "http://www.w3.org/Graphics/SVG/1.1/DTD/svg11.dtd">
<svg xmlns="http://www.w3.org/2000/svg" xmlns:xlink="http://www.w3.org/1999/xlink" version="1.1" id="Layer_1" x="0px" y="0px" width="512px" height="623.297px" viewBox="0 0 512 623.297" enable-background="new 0 0 512 623.297" xml:space="preserve">
<path d="M445.216,333.926c0,49.168-39.858,89.027-89.026,89.027H178.102c27.028,20.32,44.521,52.642,44.521,89.054  c0,61.478-49.841,111.29-111.318,111.29C49.834,623.297,0,573.484,0,512.007c0-45.64,27.474-84.866,66.784-102.043V213.347  C27.474,196.171,0,156.95,0,111.304C0,49.834,49.834,0,111.304,0c61.478,0,111.318,49.834,111.318,111.304  c0,45.646-27.481,84.867-66.791,102.043v120.579h155.817c24.604,0,44.541-19.943,44.541-44.534v-31.518  c-39.323-17.177-66.784-56.403-66.784-102.05c0-61.47,49.827-111.304,111.298-111.304C462.173,44.521,512,94.354,512,155.824  c0,45.646-27.461,84.873-66.784,102.05V333.926z M400.703,111.304c-24.591,0-44.514,19.937-44.514,44.521  c0,24.591,19.923,44.527,44.514,44.527s44.513-19.937,44.513-44.527C445.216,131.24,425.294,111.304,400.703,111.304z   M111.304,66.784c-24.591,0-44.52,19.929-44.52,44.52s19.929,44.521,44.52,44.521s44.527-19.93,44.527-44.521  S135.895,66.784,111.304,66.784z M111.304,467.493c-24.591,0-44.52,19.923-44.52,44.514s19.929,44.507,44.52,44.507  s44.527-19.916,44.527-44.507S135.895,467.493,111.304,467.493z" fill="#14892C"/>
</svg>
